<?xml version="1.0" standalone="no"?>
<!DOCTYPE svg PUBLIC "-//W3C//DTD SVG 20010904//EN"
 "http://www.w3.org/TR/2001/REC-SVG-20010904/DTD/svg10.dtd">
<svg version="1.0" xmlns="http://www.w3.org/2000/svg"
 width="422.000000pt" height="422.000000pt" viewBox="0 0 422.000000 422.000000"
 preserveAspectRatio="xMidYMid meet">
<metadata>
Created by potrace 1.14, written by Peter Selinger 2001-2017
</metadata>
<g transform="translate(0.000000,422.000000) scale(0.100000,-0.100000)"
fill="#000000" stroke="none">
<path d="M1655 3280 c-3 -5 -1 -10 4 -10 6 0 11 5 11 10 0 6 -2 10 -4 10 -3 0
-8 -4 -11 -10z"/>
<path d="M1694 3273 c-4 -10 -6 -24 -5 -30 2 -16 -41 -17 -56 -2 -8 8 -13 7
-18 -2 -5 -7 -4 -10 2 -6 6 4 17 -1 24 -10 12 -15 12 -16 -3 -10 -10 3 -20 2
-23 -3 -3 -5 -14 -7 -25 -5 -12 2 -18 0 -15 -5 3 -5 -14 -14 -37 -21 -24 -6
-47 -14 -53 -19 -5 -4 -18 -6 -27 -5 -10 2 -18 0 -18 -4 0 -4 -6 -8 -12 -8 -7
-1 -47 -12 -88 -26 -41 -14 -78 -23 -82 -21 -4 3 -8 1 -8 -4 0 -5 -18 -14 -40
-21 -21 -6 -45 -19 -52 -29 -18 -24 -97 -74 -107 -67 -5 3 -11 1 -13 -4 -3 -9
-149 -92 -244 -140 -65 -33 -79 -63 -53 -115 9 -20 14 -36 11 -36 -4 0 -2 -4
4 -8 6 -4 31 -45 55 -92 24 -47 48 -88 52 -91 8 -6 3 -51 -8 -69 -4 -6 -11 -7
-17 -4 -6 4 -8 2 -4 -4 3 -6 -2 -16 -11 -22 -15 -9 -14 -10 7 -5 22 5 23 4 9
-7 -9 -7 -14 -19 -11 -27 3 -10 0 -11 -9 -5 -12 7 -12 5 -1 -9 15 -18 7 -41
-11 -31 -7 4 -8 3 -4 -1 10 -12 38 -15 31 -4 -6 10 9 12 19 2 11 -10 -27 -32
-39 -22 -13 11 -76 0 -69 -11 3 -5 -5 -6 -17 -2 -17 4 -20 2 -15 -12 4 -10 3
-15 -3 -11 -6 3 -10 1 -10 -5 0 -6 -5 -8 -10 -5 -8 5 -7 12 2 23 11 15 -3 6
-42 -27 -3 -2 3 -1 13 2 9 4 17 2 17 -3 0 -6 -8 -10 -17 -10 -15 0 -16 -2 -3
-10 13 -8 13 -10 -1 -10 -9 0 -24 -10 -33 -22 l-17 -23 12 25 c11 22 10 23 -3
13 -8 -7 -18 -10 -21 -7 -4 4 -5 -3 -2 -14 4 -24 -19 -49 -30 -32 -10 16 -25
2 -18 -17 4 -11 3 -14 -5 -9 -7 4 -12 3 -12 -3 0 -5 -7 -17 -16 -26 -12 -12
-19 -13 -30 -4 -10 8 -12 7 -9 -9 5 -26 -37 -56 -53 -40 -8 8 -10 5 -6 -8 6
-26 -44 -63 -58 -43 -7 10 -8 8 -5 -9 3 -12 1 -19 -4 -16 -5 3 -12 -1 -15 -9
-3 -8 -15 -17 -26 -20 -13 -4 -17 -10 -12 -18 4 -8 3 -10 -4 -5 -7 4 -12 2
-12 -5 0 -7 -3 -10 -6 -6 -3 3 -2 12 2 19 5 7 9 19 10 26 2 10 -1 11 -12 1 -8
-6 -12 -14 -10 -17 5 -4 -21 -62 -28 -62 -2 0 -3 6 -2 14 0 8 -3 15 -8 15 -5
-1 -13 5 -18 13 -6 9 -7 6 -3 -9 5 -19 3 -21 -22 -18 -15 2 -23 2 -17 -1 8 -3
9 -16 4 -39 -4 -19 -5 -35 -1 -35 3 0 -1 -5 -9 -11 -13 -9 -13 -10 0 -6 8 2
15 8 15 13 0 5 4 15 8 22 5 6 6 16 3 20 -9 15 9 31 24 22 12 -8 11 -10 -5 -10
-11 0 -15 -4 -10 -8 12 -8 18 -33 8 -30 -5 2 -8 1 -9 -2 0 -3 -6 -16 -13 -29
-7 -13 -9 -21 -3 -17 5 3 12 -1 15 -8 3 -8 2 -17 -4 -20 -5 -2 -4 -3 3 -1 7 1
12 7 11 12 -1 5 4 10 12 10 7 0 11 -6 8 -14 -4 -9 0 -11 13 -7 15 5 16 4 4 -4
-8 -6 -17 -9 -20 -7 -4 2 -7 -2 -7 -9 0 -8 10 -11 26 -9 21 4 23 2 11 -7 -12
-10 -11 -11 7 -7 13 3 26 0 30 -5 3 -7 1 -8 -5 -4 -7 4 -12 2 -12 -3 0 -6 3
-11 8 -11 4 0 13 -13 20 -30 8 -17 21 -30 32 -30 10 0 21 -7 24 -16 5 -14 4
-15 -9 -4 -13 11 -14 10 -9 -4 3 -9 16 -16 28 -17 20 0 20 -1 1 -9 -20 -8 -19
-9 1 -9 26 -1 48 -26 41 -45 -3 -8 0 -17 8 -20 10 -3 12 0 8 12 -3 9 6 2 21
-17 14 -19 26 -37 26 -40 0 -3 -7 2 -14 12 -7 9 -17 17 -21 17 -5 0 0 -9 10
-20 10 -11 24 -20 32 -20 7 0 13 -8 13 -19 0 -10 8 -25 17 -32 16 -13 17 -12
4 4 -8 9 -11 20 -9 23 3 3 12 -8 19 -25 7 -16 17 -27 21 -25 4 3 8 -2 8 -11 0
-10 -5 -13 -12 -9 -7 4 -8 3 -4 -5 6 -9 11 -9 24 1 10 8 13 9 9 1 -4 -6 -3
-14 2 -18 5 -3 8 -14 6 -25 -2 -11 -1 -19 3 -18 4 1 18 -2 30 -6 19 -6 23 -14
19 -32 -4 -21 -2 -22 11 -12 13 11 15 10 9 -4 -4 -13 -2 -15 10 -11 12 5 15 2
10 -10 -4 -12 -2 -14 11 -10 15 6 15 4 4 -9 -11 -14 -10 -16 9 -11 19 5 21 3
17 -25 -2 -17 -1 -29 4 -26 4 3 17 0 28 -6 17 -9 19 -14 9 -26 -10 -12 -9 -13
5 -8 9 3 16 1 16 -6 0 -6 5 -8 13 -4 7 5 6 0 -3 -11 -14 -17 -13 -17 9 -10 18
6 22 4 15 -6 -15 -25 -14 -46 2 -25 8 11 14 15 14 10 0 -6 7 -19 16 -30 8 -10
13 -13 9 -6 -4 8 5 7 29 -4 19 -10 32 -22 29 -27 -3 -6 -1 -7 6 -3 8 5 9 12 2
20 -7 9 -3 12 17 11 17 0 26 -6 24 -15 -2 -10 0 -11 11 -2 8 7 17 9 20 5 4 -3
7 -1 7 6 0 7 -6 11 -14 8 -15 -6 -16 9 -3 30 6 10 12 10 27 1 10 -7 16 -16 13
-22 -3 -5 -2 -6 4 -3 5 3 8 19 7 36 -1 17 1 30 5 29 3 -1 18 4 34 10 24 10 32
22 28 44 0 4 7 4 16 1 10 -4 14 -2 10 4 -5 7 2 10 18 9 21 -3 23 -1 14 16 -6
11 -6 17 0 16 5 -2 17 6 26 17 9 11 14 14 10 7 -3 -6 -1 -12 4 -12 10 0 15 13
13 31 -1 4 14 6 32 5 19 -1 32 2 30 6 -8 12 16 20 29 9 8 -6 18 -7 27 0 12 8
11 9 -4 7 -22 -3 -30 11 -16 32 8 12 11 12 28 -3 15 -14 19 -14 19 -2 0 8 -4
12 -8 10 -10 -7 -18 20 -10 34 10 15 32 11 49 -9 11 -13 11 -11 2 8 -6 12 -15
22 -21 22 -5 0 -4 6 3 14 11 12 15 11 24 -6 10 -18 12 -19 17 -4 4 10 12 14
18 10 8 -4 9 -3 5 5 -6 8 -12 9 -20 2 -9 -8 -13 -7 -13 3 0 9 8 13 19 11 15
-3 18 0 13 18 -5 17 -4 19 4 7 9 -13 11 -13 11 -1 0 12 2 12 13 -1 14 -17 52
-33 42 -18 -3 6 -12 10 -19 10 -8 0 -16 11 -18 25 -4 20 -3 23 8 14 8 -6 11
-16 7 -22 -4 -6 -1 -7 6 -3 7 5 10 14 7 21 -3 8 1 19 9 25 12 10 13 8 10 -9
-2 -12 0 -19 5 -16 4 3 11 -1 14 -7 3 -7 3 -3 0 10 -4 15 -1 22 10 22 8 0 14
6 12 13 -1 6 -1 9 1 5 8 -15 23 -8 23 10 0 14 2 15 10 2 7 -11 3 -18 -15 -28
-14 -7 -25 -15 -25 -19 0 -3 3 -3 7 0 3 4 12 -1 20 -11 12 -16 13 -16 6 2 -4
12 0 22 11 28 9 5 14 13 11 18 -3 5 -1 11 4 14 5 4 13 1 17 -5 4 -8 3 -9 -4
-5 -8 5 -10 1 -5 -10 5 -15 7 -15 15 0 5 9 7 20 4 25 -3 4 6 6 19 3 14 -2 22
-9 18 -14 -3 -6 8 0 26 13 28 21 44 38 22 24 -5 -3 -12 -1 -16 4 -3 6 3 8 15
6 11 -2 22 1 25 6 9 14 25 0 19 -16 -4 -8 -11 -12 -17 -8 -6 4 -7 1 -2 -7 6
-10 10 -10 19 3 6 8 17 24 24 34 7 10 11 14 8 8 -2 -5 3 -17 12 -24 14 -13 15
-13 10 6 -5 17 -1 20 21 17 14 -1 37 -6 50 -10 16 -5 22 -4 17 4 -9 16 14 26
27 13 9 -9 7 -10 -7 -5 -13 5 -17 4 -12 -4 4 -7 12 -12 17 -12 5 0 21 -7 35
-16 23 -16 24 -18 8 -35 -10 -11 -13 -19 -9 -19 4 0 0 -9 -9 -19 -14 -15 -15
-21 -4 -27 7 -4 10 -3 5 1 -4 5 0 17 10 27 9 10 12 18 8 18 -4 0 0 9 9 19 17
19 17 20 -8 36 -14 10 -26 22 -25 29 0 7 2 6 6 -1 2 -7 11 -13 19 -13 9 0 12
5 9 10 -3 6 -1 10 5 10 6 0 10 -7 8 -16 -2 -10 4 -19 12 -21 13 -4 13 -3 0 6
-11 8 1 11 47 11 55 0 62 -2 56 -17 -6 -15 -5 -16 9 -3 14 14 14 16 -6 27
l-21 12 23 -2 c12 -1 22 -5 22 -9 0 -4 8 -8 18 -8 15 0 15 -2 2 -11 -13 -9
-13 -10 1 -6 9 3 23 0 30 -6 9 -8 8 -5 -1 8 -8 11 -19 23 -25 27 -6 5 -6 8 1
8 6 0 19 -9 29 -20 20 -22 35 -26 35 -9 0 5 -4 7 -10 4 -6 -3 -7 1 -4 10 4 9
11 12 18 7 18 -14 58 -13 49 1 -4 8 -1 8 9 -1 13 -10 17 -10 21 0 4 11 6 10 6
0 1 -7 5 -10 11 -7 6 3 7 -1 4 -9 -3 -9 -1 -16 5 -16 6 0 11 5 11 10 0 6 7 10
15 10 8 0 15 -4 15 -10 0 -5 -4 -10 -8 -10 -12 0 -12 -39 0 -46 7 -4 8 -2 4 4
-4 6 0 24 8 40 8 16 12 33 8 37 -4 5 -1 4 7 0 8 -5 37 -10 64 -11 27 -1 54 -8
61 -15 8 -9 7 -10 -9 -5 -16 6 -18 5 -8 -5 21 -21 40 5 23 28 -11 14 -11 15
-1 6 7 -6 19 -9 26 -6 11 4 43 -35 37 -44 -1 -2 -2 -9 -2 -15 0 -9 3 -8 10 2
5 9 5 19 -2 27 -6 8 -8 16 -4 20 3 3 6 1 6 -6 0 -7 5 -9 12 -5 7 5 8 3 3 -6
-6 -10 -4 -12 8 -7 10 3 17 2 17 -4 0 -6 9 -8 21 -4 19 6 20 5 8 -8 -10 -11
-18 -12 -27 -5 -7 6 -15 8 -19 5 -3 -4 2 -9 11 -13 9 -3 13 -10 10 -15 -3 -5
0 -9 5 -9 6 0 11 5 11 11 0 5 5 7 12 3 7 -5 8 -3 3 5 -6 10 -3 11 14 2 11 -7
21 -9 21 -6 0 3 9 1 21 -5 16 -9 18 -14 8 -26 -10 -12 -9 -13 6 -8 13 5 16 4
11 -4 -5 -9 0 -9 19 -2 28 11 45 6 45 -11 0 -6 -8 -8 -18 -5 -12 4 -19 1 -19
-6 0 -7 10 -13 23 -13 12 0 20 3 17 8 -2 4 1 7 7 7 6 0 8 4 5 10 -3 6 1 7 10
3 13 -5 14 -7 3 -14 -10 -7 -9 -9 5 -9 12 0 16 -5 11 -12 -6 -10 -4 -10 7 0 7
6 18 12 24 12 5 0 3 -5 -5 -11 -12 -9 -11 -10 8 -6 12 3 20 1 17 -3 -3 -5 -1
-11 5 -15 5 -3 10 0 10 7 0 10 2 10 9 -1 5 -7 13 -11 19 -7 6 3 14 1 18 -5 4
-8 3 -9 -4 -5 -7 4 -12 3 -12 -2 0 -5 13 -12 29 -14 23 -3 28 -1 24 11 -2 9 3
4 12 -11 8 -16 20 -28 25 -28 6 0 10 -8 10 -17 0 -15 2 -16 10 -3 7 11 4 17
-10 24 -18 8 -28 26 -15 26 17 0 46 -40 41 -57 -3 -10 -1 -25 5 -33 8 -12 9
-11 5 5 -7 24 8 53 18 36 4 -6 2 -11 -4 -11 -6 0 -8 -5 -5 -10 4 -6 11 -8 16
-5 5 3 6 -1 3 -10 -5 -11 -2 -14 10 -9 13 5 15 2 9 -12 -6 -18 -5 -18 17 1 13
11 20 15 17 8 -4 -6 -3 -14 3 -18 6 -4 7 -11 4 -17 -5 -8 -1 -9 10 -5 10 4 15
3 11 -3 -6 -9 8 -14 28 -11 5 1 6 -3 2 -9 -4 -7 -12 -7 -25 0 -16 8 -18 7 -14
-4 3 -8 16 -13 30 -11 21 2 22 0 12 -13 -11 -13 -10 -15 5 -9 11 4 17 2 17 -8
0 -9 9 -15 23 -15 17 0 19 -2 7 -9 -8 -6 -18 -7 -24 -4 -5 3 -6 1 -2 -5 4 -6
13 -9 21 -5 8 3 15 1 15 -5 0 -9 37 -25 53 -23 4 1 3 -7 -2 -18 -9 -16 -8 -18
9 -14 12 3 20 0 20 -6 0 -7 -5 -9 -12 -5 -7 4 -8 3 -4 -5 6 -9 11 -9 24 1 13
11 14 11 4 -8 -9 -16 -8 -21 3 -21 8 0 12 3 10 6 -4 8 55 5 78 -4 14 -6 16 -3
11 11 -4 13 -3 15 3 6 11 -14 46 -5 37 9 -3 5 -11 6 -17 3 -7 -4 -8 -3 -4 1
10 12 38 15 51 7 15 -9 39 -12 31 -4 -4 4 -12 7 -18 7 -7 0 -12 9 -12 20 0 12
6 20 15 19 11 -1 15 7 14 27 -1 16 3 32 9 36 6 3 7 1 3 -5 -11 -18 10 -14 25
5 12 14 12 16 0 8 -10 -6 -12 -4 -6 6 18 32 38 47 53 42 10 -4 13 -2 8 5 -4 7
-2 12 3 12 6 0 11 7 11 16 0 9 5 12 12 8 8 -5 9 -2 4 11 -6 16 -4 16 11 4 15
-12 16 -12 11 2 -4 11 2 21 18 29 13 8 24 17 24 22 0 5 -5 6 -12 2 -6 -4 -8
-3 -4 4 3 6 15 9 26 7 13 -3 17 1 13 11 -3 10 2 14 18 14 17 0 20 3 10 9 -10
7 -8 12 10 24 12 9 26 14 31 11 4 -3 5 1 2 9 -3 9 4 21 15 29 12 8 18 19 13
24 -4 4 0 3 9 -4 19 -14 33 -4 18 14 -8 9 -4 17 15 29 14 9 29 14 34 11 6 -3
9 2 8 12 -1 12 5 16 18 14 17 -3 18 -1 8 11 -10 12 -9 16 4 21 9 3 21 3 27 -1
8 -4 7 -1 -1 9 -10 13 -9 18 5 29 17 13 17 13 3 -5 -10 -14 -11 -17 -2 -12 7
4 18 20 23 34 10 27 11 27 25 7 15 -19 15 -19 9 6 -4 17 -2 30 6 34 7 5 10 4
6 -2 -3 -5 0 -10 7 -10 8 0 12 7 8 15 -3 10 -1 13 6 8 6 -3 13 -2 16 3 4 5 1
13 -5 17 -8 5 -9 3 -4 -6 6 -9 4 -11 -5 -5 -10 6 -7 14 13 31 25 21 38 42 19
30 -5 -3 -9 1 -9 9 0 8 4 12 9 9 4 -3 8 -1 8 5 0 5 -6 12 -12 14 -9 4 -9 6 2
6 10 1 8 6 -8 17 -12 8 -22 21 -22 28 0 8 -7 17 -16 20 -15 6 -15 8 2 28 l19
21 -30 -19 c-16 -10 -26 -13 -22 -6 5 6 4 12 -2 12 -6 0 -11 7 -11 16 0 8 -4
13 -8 10 -5 -3 -21 6 -38 20 -16 14 -23 22 -15 18 9 -5 12 -3 7 4 -4 7 -13 12
-20 12 -7 0 -23 12 -37 27 -13 14 -18 23 -11 19 6 -4 12 -5 12 -2 0 3 -14 12
-30 21 -24 12 -29 21 -26 41 3 14 1 22 -5 19 -5 -4 -7 -11 -4 -16 4 -5 -1 -9
-9 -9 -15 0 -15 25 -1 53 4 6 -3 1 -14 -13 -12 -14 -20 -19 -19 -10 2 8 -3 14
-9 12 -11 -2 -18 16 -15 39 1 4 -9 5 -21 2 -18 -4 -19 -3 -7 6 11 8 12 11 2
11 -18 0 -43 26 -34 35 4 5 -1 5 -10 2 -10 -3 -20 -1 -24 5 -4 6 -3 8 4 4 6
-3 14 -2 17 4 4 6 3 10 -2 9 -27 -5 -45 2 -40 15 4 11 1 13 -11 9 -15 -6 -15
-4 -4 9 11 14 10 16 -10 11 -18 -4 -20 -3 -8 6 20 14 4 14 -22 0 -18 -10 -19
-8 -13 13 7 23 7 23 -9 3 -8 -11 -16 -15 -16 -10 0 6 -4 4 -9 -3 -4 -7 -18
-14 -30 -15 -13 -1 -20 -6 -17 -14 3 -7 -2 -13 -10 -13 -9 0 -12 5 -8 13 4 6
-2 3 -14 -7 -25 -21 -30 -35 -7 -16 13 11 14 10 9 -4 -4 -9 -14 -16 -23 -15
-29 3 -41 -1 -41 -12 0 -8 4 -8 14 0 8 7 17 8 20 3 7 -12 -18 -35 -27 -25 -4
3 -7 1 -7 -5 0 -7 -5 -12 -11 -12 -8 0 -8 5 1 15 10 12 10 15 0 15 -9 0 -10 3
-1 13 6 8 7 18 3 22 -4 5 -2 5 4 2 6 -4 20 1 30 9 10 9 13 13 7 9 -16 -8 -17
21 -1 31 7 5 8 3 3 -6 -5 -9 -4 -11 4 -6 9 6 9 11 0 22 -9 11 -9 14 0 14 7 0
9 5 6 10 -3 6 1 10 10 10 10 0 13 -5 9 -12 -4 -7 -3 -8 5 -4 15 10 4 26 -17
26 -15 0 -15 2 -2 10 11 7 11 10 2 10 -10 0 -10 5 -1 23 11 20 11 21 -4 8 -20
-16 -23 -1 -4 18 10 10 9 11 -5 6 -13 -5 -21 0 -29 19 -10 22 -15 24 -27 13
-13 -9 -14 -9 -8 1 4 6 3 12 -3 12 -10 0 28 82 42 88 4 2 5 8 1 13 -3 5 -1 9
4 9 4 0 14 16 22 35 8 19 17 35 22 35 4 0 8 9 8 20 0 11 4 20 10 20 5 0 12 11
16 25 3 14 10 25 15 25 5 0 9 15 9 33 0 40 -22 62 -102 103 -32 16 -58 33 -58
37 0 5 -4 6 -8 3 -5 -3 -19 4 -30 15 -12 11 -22 18 -22 15 0 -12 -148 80 -170
106 -14 16 -34 31 -45 33 -11 2 -21 4 -22 5 -2 2 -6 3 -10 5 -5 1 -15 4 -23 7
-8 3 -35 11 -60 19 -25 7 -49 15 -55 18 -5 3 -16 6 -23 7 -8 2 -21 6 -30 10
-9 4 -20 8 -24 9 -5 2 -10 4 -13 5 -8 4 -17 7 -52 15 -18 4 -31 11 -28 15 2 3
-6 6 -18 5 -12 -1 -29 2 -37 7 -44 24 -117 39 -192 39 -9 0 -20 9 -23 20 -6
19 -7 19 -20 3 -10 -15 -16 -16 -27 -6 -8 6 -18 9 -22 5 -4 -4 -11 -1 -16 7
-6 9 -10 10 -10 3 0 -7 -9 -10 -22 -7 -13 3 -27 6 -33 7 -5 2 -16 7 -24 11
-10 6 -12 5 -7 -3 9 -15 -31 -9 -66 10 -15 8 -54 11 -108 10 -47 -2 -152 -4
-235 -5 -87 0 -153 -5 -157 -11 -5 -6 -8 -6 -8 1 0 6 -11 12 -25 12 -16 0 -22
-5 -18 -12 4 -6 -1 -5 -10 2 -9 8 -21 11 -26 8 -6 -4 -8 4 -5 19 5 29 0 33
-12 8z m-847 -938 c0 -8 -4 -12 -9 -9 -5 3 -6 10 -3 15 9 13 12 11 12 -6z m21
-80 c-3 -3 -9 2 -12 12 -6 14 -5 15 5 6 7 -7 10 -15 7 -18z m-658 -475 c0 -5
-5 -10 -11 -10 -5 0 -7 5 -4 10 3 6 8 10 11 10 2 0 4 -4 4 -10z m115 -149 c-6
-5 -25 10 -25 20 0 5 6 4 14 -3 8 -7 12 -15 11 -17z m1359 -152 c-3 -5 -10 -7
-15 -3 -5 3 -7 10 -3 15 3 5 10 7 15 3 5 -3 7 -10 3 -15z m1081 -59 c3 -5 1
-10 -4 -10 -6 0 -11 5 -11 10 0 6 2 10 4 10 3 0 8 -4 11 -10z m-2170 -120 c-3
-5 -1 -10 6 -10 7 0 10 -3 6 -6 -9 -9 -28 6 -22 17 4 5 8 9 11 9 3 0 2 -4 -1
-10z m680 -60 c-10 -11 -25 -20 -34 -19 -10 0 -7 4 7 10 14 5 20 13 16 20 -4
8 -3 9 4 5 7 -4 12 -2 12 5 0 7 3 9 7 6 3 -4 -2 -16 -12 -27z"/>
<path d="M1724 3279 c-4 -7 -3 -9 4 -5 5 3 13 0 15 -6 4 -9 6 -10 6 -1 1 17
-16 25 -25 12z"/>
<path d="M2426 3233 c-6 -14 -5 -15 5 -6 7 7 10 15 7 18 -3 3 -9 -2 -12 -12z"/>
<path d="M2470 3242 c0 -5 7 -9 15 -9 8 0 12 4 9 9 -3 4 -9 8 -15 8 -5 0 -9
-4 -9 -8z"/>
<path d="M747 2299 c7 -7 15 -10 18 -7 3 3 -2 9 -12 12 -14 6 -15 5 -6 -5z"/>
<path d="M3530 2239 c0 -5 5 -7 10 -4 6 3 10 8 10 11 0 2 -4 4 -10 4 -5 0 -10
-5 -10 -11z"/>
<path d="M570 2160 c0 -5 5 -10 11 -10 5 0 7 5 4 10 -3 6 -8 10 -11 10 -2 0
-4 -4 -4 -10z"/>
<path d="M499 2118 c-5 -18 -6 -38 -1 -34 7 8 12 36 6 36 -2 0 -4 -1 -5 -2z"/>
<path d="M442 2054 c-14 -16 -5 -18 17 -5 7 5 9 11 5 14 -5 3 -15 -1 -22 -9z"/>
<path d="M395 2010 c-4 -6 -10 -8 -14 -6 -4 3 -8 -1 -8 -9 0 -13 4 -12 19 2
18 16 22 23 14 23 -3 0 -8 -5 -11 -10z"/>
<path d="M3971 1977 c-9 -11 -7 -17 6 -28 16 -13 17 -12 5 3 -10 13 -10 17 0
21 7 2 10 7 7 11 -3 4 -11 0 -18 -7z"/>
<path d="M229 1923 c-13 -16 -12 -17 4 -4 9 7 17 15 17 17 0 8 -8 3 -21 -13z"/>
<path d="M4026 1914 c-5 -14 -4 -15 9 -4 17 14 19 20 6 20 -5 0 -12 -7 -15
-16z"/>
<path d="M136 1803 c-6 -14 -5 -15 5 -6 7 7 10 15 7 18 -3 3 -9 -2 -12 -12z"/>
<path d="M4148 1783 c7 -3 16 -2 19 1 4 3 -2 6 -13 5 -11 0 -14 -3 -6 -6z"/>
<path d="M133 1765 c0 -8 4 -12 9 -9 5 3 6 10 3 15 -9 13 -12 11 -12 -6z"/>
<path d="M4144 1668 c-4 -7 -4 -10 1 -6 4 4 15 2 24 -5 14 -11 14 -10 2 6 -16
20 -18 21 -27 5z"/>
<path d="M385 1520 c3 -5 8 -10 11 -10 2 0 4 5 4 10 0 6 -5 10 -11 10 -5 0 -7
-4 -4 -10z"/>
<path d="M1823 1505 c0 -7 6 -12 14 -11 19 3 21 19 2 21 -9 2 -16 -3 -16 -10z"/>
<path d="M1894 1498 c-5 -7 -3 -8 6 -3 10 6 12 4 7 -7 -4 -12 -1 -14 15 -10
16 4 19 2 13 -8 -5 -9 -4 -11 3 -6 16 10 16 11 -12 30 -18 11 -27 13 -32 4z"/>
<path d="M2238 1493 c-6 -7 -7 -13 -3 -13 4 0 1 -8 -6 -17 -11 -16 -11 -16 1
-5 8 7 16 17 16 23 1 5 2 12 3 15 0 4 13 -2 29 -12 19 -13 24 -13 15 -2 -7 8
-11 17 -8 19 2 3 -5 5 -16 5 -11 0 -25 -6 -31 -13z"/>
<path d="M2403 1499 c9 -6 15 -14 12 -18 -2 -5 3 -15 13 -22 15 -12 16 -12 4
2 -10 14 -10 18 3 23 17 6 21 26 4 26 -5 0 -7 -4 -4 -10 3 -5 2 -10 -4 -10 -5
0 -13 5 -16 10 -3 6 -12 10 -18 10 -7 0 -4 -5 6 -11z"/>
<path d="M2462 1485 c-17 -37 -14 -45 4 -12 9 16 14 31 11 33 -2 2 -9 -7 -15
-21z"/>
<path d="M2543 1498 c0 -7 -4 -22 -7 -33 -5 -13 -2 -12 8 5 17 29 20 40 8 40
-5 0 -9 -6 -9 -12z"/>
<path d="M1815 1470 c-4 -6 -11 -8 -16 -5 -5 4 -9 2 -9 -4 0 -5 8 -9 18 -8 10
0 19 7 19 14 0 16 -4 16 -12 3z"/>
<path d="M1853 1465 c0 -8 3 -13 5 -10 3 3 10 0 17 -5 8 -7 12 -5 12 5 0 8 -3
13 -5 10 -3 -3 -10 0 -17 5 -8 7 -12 5 -12 -5z"/>
<path d="M2033 1465 c0 -8 4 -15 9 -15 4 0 8 7 8 15 0 8 -4 15 -8 15 -5 0 -9
-7 -9 -15z"/>
<path d="M1700 1466 c0 -2 9 -6 20 -9 11 -3 18 -1 14 4 -5 9 -34 13 -34 5z"/>
<path d="M2166 1462 c-3 -5 1 -9 9 -9 8 0 15 4 15 9 0 4 -4 8 -9 8 -6 0 -12
-4 -15 -8z"/>
<path d="M2469 1443 c-13 -16 -12 -17 4 -4 9 7 17 15 17 17 0 8 -8 3 -21 -13z"/>
<path d="M3936 1447 c-16 -12 -16 -14 -3 -14 9 0 18 6 21 14 3 7 4 13 3 13 -2
0 -11 -6 -21 -13z"/>
<path d="M1639 1448 c-11 -38 -1 -49 21 -23 11 13 10 14 -5 9 -13 -5 -16 -4
-11 4 4 7 5 12 2 12 -3 0 -6 -1 -7 -2z"/>
<path d="M1910 1436 c7 -7 13 -7 20 0 6 6 3 10 -10 10 -13 0 -16 -4 -10 -10z"/>
<path d="M1986 1442 c-3 -5 1 -9 9 -9 8 0 15 4 15 9 0 4 -4 8 -9 8 -6 0 -12
-4 -15 -8z"/>
<path d="M2073 1435 c0 -8 4 -12 9 -9 5 3 6 10 3 15 -9 13 -12 11 -12 -6z"/>
<path d="M2256 1438 c3 -4 11 -5 19 -1 21 7 19 12 -4 10 -11 0 -18 -5 -15 -9z"/>
<path d="M1734 1420 c0 -13 4 -16 10 -10 7 7 7 13 0 20 -6 6 -10 3 -10 -10z"/>
<path d="M1857 1430 c7 -8 20 -15 29 -16 9 -1 13 1 9 4 -4 4 -10 7 -13 7 -4 0
-14 4 -22 9 -12 7 -13 6 -3 -4z"/>
<path d="M2036 1427 c3 -10 9 -15 12 -12 3 3 0 11 -7 18 -10 9 -11 8 -5 -6z"/>
<path d="M2579 1438 c-5 -9 -5 -48 -1 -43 6 6 11 45 5 45 -2 0 -4 -1 -4 -2z"/>
<path d="M2673 1428 c-3 -6 -1 -8 5 -4 5 3 12 1 14 -6 3 -8 9 -8 24 0 10 6 15
12 9 12 -5 1 -18 3 -27 5 -10 2 -21 -2 -25 -7z"/>
<path d="M1593 1407 c0 -8 6 -14 14 -14 9 0 10 4 2 14 -6 7 -12 13 -14 13 -1
0 -2 -6 -2 -13z"/>
<path d="M1665 1399 c-3 -4 2 -6 10 -5 21 3 28 13 10 13 -9 0 -18 -4 -20 -8z"/>
<path d="M1965 1400 c-3 -6 1 -7 9 -4 18 7 21 14 7 14 -6 0 -13 -4 -16 -10z"/>
<path d="M1713 1373 c0 -9 4 -10 14 -2 7 6 13 12 13 14 0 1 -6 2 -13 2 -8 0
-14 -6 -14 -14z"/>
<path d="M2710 1380 c0 -5 5 -10 11 -10 5 0 7 5 4 10 -3 6 -8 10 -11 10 -2 0
-4 -4 -4 -10z"/>
<path d="M1588 1359 c6 -9 9 -18 6 -22 -3 -3 1 -4 10 -3 8 1 18 5 21 9 3 4 2
5 -2 2 -3 -3 -16 3 -27 12 -15 14 -18 14 -8 2z"/>
<path d="M1440 1341 c0 -11 4 -22 9 -25 4 -3 6 6 3 19 -5 30 -12 33 -12 6z"/>
<path d="M2830 1351 c0 -7 -5 -9 -12 -5 -7 5 -8 3 -3 -5 5 -9 10 -10 18 -2 6
6 8 14 4 18 -4 3 -7 1 -7 -6z"/>
<path d="M1636 1333 c-6 -14 -5 -15 5 -6 7 7 10 15 7 18 -3 3 -9 -2 -12 -12z"/>
<path d="M1660 1346 c0 -2 8 -10 18 -17 15 -13 16 -12 3 4 -13 16 -21 21 -21
13z"/>
<path d="M1519 1338 c-6 -23 -7 -48 -1 -48 4 0 8 11 8 25 0 21 -4 33 -7 23z"/>
<path d="M2887 1331 c6 -7 9 -20 6 -27 -3 -8 -3 -14 0 -14 14 0 14 30 -1 41
-14 11 -15 11 -5 0z"/>
<path d="M1471 1310 c-13 -11 -19 -20 -14 -20 6 0 18 9 28 20 23 25 17 25 -14
0z"/>
<path d="M2927 1310 c3 -11 9 -20 15 -20 5 0 4 9 -2 20 -6 11 -12 20 -14 20
-2 0 -2 -9 1 -20z"/>
<path d="M1417 1309 c7 -7 15 -10 18 -7 3 3 -2 9 -12 12 -14 6 -15 5 -6 -5z"/>
<path d="M1559 1293 c-13 -16 -12 -17 4 -4 9 7 17 15 17 17 0 8 -8 3 -21 -13z"/>
<path d="M1336 1292 c-3 -5 1 -9 9 -9 8 0 12 4 9 9 -3 4 -7 8 -9 8 -2 0 -6 -4
-9 -8z"/>
<path d="M2988 1283 c7 -3 16 -2 19 1 4 3 -2 6 -13 5 -11 0 -14 -3 -6 -6z"/>
<path d="M1697 1274 c-6 -6 -42 -12 -99 -17 -39 -3 -35 -15 5 -15 17 0 51 -3
74 -6 25 -3 45 -1 49 5 7 13 -19 43 -29 33z"/>
<path d="M1840 1260 c-14 -26 3 -60 27 -55 10 2 21 4 25 4 4 1 10 10 13 21 14
43 -44 69 -65 30z m48 -24 c3 -13 -1 -17 -14 -14 -11 2 -20 11 -22 22 -3 13 1
17 14 14 11 -2 20 -11 22 -22z"/>
<path d="M1927 1248 c3 -18 1 -28 -6 -28 -7 0 -9 -4 -6 -10 13 -21 34 -10 32
17 -1 18 3 29 14 31 12 2 15 -4 11 -28 -2 -17 0 -30 6 -30 17 0 20 13 10 47
-7 27 -13 32 -38 31 -26 -1 -28 -3 -23 -30z"/>
<path d="M2012 1267 c-12 -15 -5 -57 10 -57 5 0 6 -5 3 -10 -4 -6 5 -5 19 2
30 13 35 28 7 21 -10 -3 -22 1 -26 8 -6 9 -2 11 12 7 31 -8 50 6 34 26 -16 19
-45 21 -59 3z m48 -13 c0 -2 -9 -4 -21 -4 -11 0 -18 4 -14 10 5 8 35 3 35 -6z"/>
<path d="M2099 1278 c-7 -28 -6 -68 2 -68 5 0 7 -6 3 -12 -6 -10 -4 -10 8 0 8
7 23 9 32 6 14 -5 16 -2 11 22 -11 50 -14 54 -35 54 -11 0 -20 -1 -21 -2z m26
-18 c3 -5 1 -10 -4 -10 -6 0 -11 5 -11 10 0 6 2 10 4 10 3 0 8 -4 11 -10z m2
-36 c-3 -3 -12 -4 -19 -1 -8 3 -5 6 6 6 11 1 17 -2 13 -5z"/>
<path d="M2166 1268 c11 -18 13 -78 3 -78 -6 0 -7 -4 -4 -10 3 -5 13 -10 21
-10 11 0 13 6 9 21 -5 14 -3 19 4 15 31 -20 68 38 39 61 -18 14 -80 15 -72 1z
m64 -29 c0 -20 -24 -26 -35 -9 -8 13 14 42 26 34 5 -3 9 -14 9 -25z"/>
<path d="M2259 1267 c15 -15 14 -70 -1 -85 -9 -9 -9 -12 3 -12 18 0 49 20 32
20 -7 0 -13 5 -13 11 0 5 4 8 9 5 14 -9 40 4 51 24 14 26 -11 48 -56 48 -26 0
-33 -3 -25 -11z m66 -27 c0 -18 -16 -22 -35 -10 -13 9 -13 11 0 20 19 12 35 8
35 -10z"/>
<path d="M2360 1260 c0 -12 10 -25 23 -31 20 -9 20 -9 -5 -4 -20 4 -28 1 -28
-9 0 -15 35 -16 58 -2 16 9 -2 36 -24 36 -8 0 -14 5 -14 10 0 7 6 7 20 0 16
-9 20 -8 20 5 0 9 -9 15 -25 15 -18 0 -25 -5 -25 -20z"/>
<path d="M1364 1262 c4 -3 14 -7 22 -8 9 -1 13 0 10 4 -4 3 -14 7 -22 8 -9 1
-13 0 -10 -4z"/>
<path d="M1747 1256 c-3 -8 -2 -18 3 -21 13 -8 20 9 11 24 -6 10 -10 9 -14 -3z"/>
<path d="M2485 1259 c-4 -6 -3 -15 3 -21 6 -6 11 -4 15 6 7 18 -9 31 -18 15z"/>
<path d="M2526 1261 c-15 -23 6 -31 62 -25 70 8 103 23 52 24 -19 0 -51 3 -71
6 -22 4 -39 2 -43 -5z"/>
<path d="M597 1249 c7 -7 15 -10 18 -7 3 3 -2 9 -12 12 -14 6 -15 5 -6 -5z"/>
<path d="M1495 1240 c3 -5 8 -10 11 -10 2 0 4 5 4 10 0 6 -5 10 -11 10 -5 0
-7 -4 -4 -10z"/>
<path d="M1370 1199 c0 -5 5 -7 10 -4 6 3 10 8 10 11 0 2 -4 4 -10 4 -5 0 -10
-5 -10 -11z"/>
<path d="M1223 1193 c-7 -2 -13 -9 -13 -14 0 -6 5 -7 12 -3 8 5 9 2 5 -10 -4
-11 -3 -15 4 -11 6 4 8 13 5 20 -3 8 0 16 7 19 7 2 8 4 2 4 -5 0 -16 -2 -22
-5z"/>
<path d="M1276 1178 c3 -5 10 -6 15 -3 13 9 11 12 -6 12 -8 0 -12 -4 -9 -9z"/>
<path d="M3150 1179 c0 -5 5 -7 10 -4 6 3 10 8 10 11 0 2 -4 4 -10 4 -5 0 -10
-5 -10 -11z"/>
<path d="M686 1143 c-6 -14 -5 -15 5 -6 7 7 10 15 7 18 -3 3 -9 -2 -12 -12z"/>
<path d="M1164 1149 c-2 -4 4 -13 13 -20 10 -8 14 -9 10 -2 -4 7 0 16 10 22
16 9 15 10 -5 8 -13 -1 -25 -4 -28 -8z"/>
<path d="M3155 1151 c-3 -5 -2 -12 3 -15 5 -3 9 1 9 9 0 17 -3 19 -12 6z"/>
<path d="M3640 1145 c-9 -10 -9 -15 -1 -15 6 0 11 5 11 11 0 5 5 7 12 3 7 -4
8 -3 4 4 -9 15 -11 15 -26 -3z"/>
<path d="M1240 1120 c-8 -5 -10 -10 -5 -10 6 0 17 5 25 10 8 5 11 10 5 10 -5
0 -17 -5 -25 -10z"/>
<path d="M1125 1100 c-4 -6 -11 -7 -17 -4 -7 4 -8 2 -4 -5 6 -9 12 -9 24 1 10
7 19 14 21 15 2 2 -1 3 -7 3 -6 0 -14 -5 -17 -10z"/>
<path d="M1164 1103 c4 -4 16 -8 28 -10 28 -4 18 6 -12 12 -12 2 -20 1 -16 -2z"/>
<path d="M1080 1060 c-12 -7 -10 -9 8 -7 12 0 22 5 22 9 0 11 -12 10 -30 -2z"/>
<path d="M1040 1045 c-7 -9 -8 -15 -2 -15 5 0 12 7 16 15 3 8 4 15 2 15 -2 0
-9 -7 -16 -15z"/>
<path d="M3270 1040 c0 -5 5 -10 11 -10 5 0 7 5 4 10 -3 6 -8 10 -11 10 -2 0
-4 -4 -4 -10z"/>
<path d="M3313 1025 c0 -8 4 -12 9 -9 5 3 6 10 3 15 -9 13 -12 11 -12 -6z"/>
<path d="M975 1010 c-3 -5 -1 -10 4 -10 6 0 11 5 11 10 0 6 -2 10 -4 10 -3 0
-8 -4 -11 -10z"/>
<path d="M3330 981 c0 -6 4 -13 10 -16 6 -3 7 1 4 9 -7 18 -14 21 -14 7z"/>
<path d="M3435 959 c-4 -6 -4 -13 -1 -16 3 -4 6 -1 6 6 0 7 5 9 12 5 7 -4 8
-3 4 4 -9 15 -13 15 -21 1z"/>
<path d="M3499 953 c-6 -7 -15 -11 -18 -8 -4 2 -8 -3 -8 -11 0 -11 5 -10 22 6
12 11 24 18 27 14 3 -3 8 -1 12 4 8 14 -23 10 -35 -5z"/>
</g>
</svg>
